<svg width="38" height="38" viewBox="0 0 38 38" fill="none" xmlns="http://www.w3.org/2000/svg">
<path d="M0 0H32C35.3137 0 38 2.68629 38 6V32C38 35.3137 35.3137 38 32 38H0V0Z" fill="white"/>
<path d="M16.75 12.25H21.25M12.25 14.5H25.75M24.25 14.5L23.724 22.3895C23.6451 23.5732 23.6057 24.165 23.35 24.6138C23.1249 25.0088 22.7854 25.3265 22.3762 25.5248C21.9115 25.75 21.3183 25.75 20.132 25.75H17.868C16.6817 25.75 16.0885 25.75 15.6238 25.5248C15.2146 25.3265 14.8751 25.0088 14.65 24.6138C14.3943 24.165 14.3549 23.5732 14.276 22.3895L13.75 14.5M17.5 17.875V21.625M20.5 17.875V21.625" stroke="#E02424" stroke-width="2" stroke-linecap="round" stroke-linejoin="round"/>
</svg>
