<svg width="38" height="38" viewBox="0 0 38 38" fill="none" xmlns="http://www.w3.org/2000/svg">
<path d="M0 6C0 2.68629 2.68629 0 6 0H38V38H6C2.68629 38 0 35.3137 0 32V6Z" fill="white"/>
<path d="M16.4425 20.1325L21.565 23.1175M21.5575 14.8825L16.4425 17.8675M25.75 13.75C25.75 14.9926 24.7426 16 23.5 16C22.2574 16 21.25 14.9926 21.25 13.75C21.25 12.5074 22.2574 11.5 23.5 11.5C24.7426 11.5 25.75 12.5074 25.75 13.75ZM16.75 19C16.75 20.2426 15.7426 21.25 14.5 21.25C13.2574 21.25 12.25 20.2426 12.25 19C12.25 17.7574 13.2574 16.75 14.5 16.75C15.7426 16.75 16.75 17.7574 16.75 19ZM25.75 24.25C25.75 25.4926 24.7426 26.5 23.5 26.5C22.2574 26.5 21.25 25.4926 21.25 24.25C21.25 23.0074 22.2574 22 23.5 22C24.7426 22 25.75 23.0074 25.75 24.25Z" stroke="#1F2A37" stroke-width="2" stroke-linecap="round" stroke-linejoin="round"/>
</svg>
